<svg id="Camada_1" data-name="Camada 1" xmlns="http://www.w3.org/2000/svg" width="343.6" height="270.32" viewBox="0 0 343.6 270.32">
  <g>
    <polygon points="262.23 42.39 259.64 229.52 287.24 229.52 289.83 125.6 262.23 42.39" style="fill: #b0afb5"/>
    <g>
      <path d="M185.58,154l.5-.13c-1.12-4.2-3.09-7.41-6.06-9.51a16.49,16.49,0,0,0-9.76-3.21,13.68,13.68,0,0,0-8.52,2.47,7.49,7.49,0,0,0-3.09,6.3,6.78,6.78,0,0,0,1.48,4.32,14.07,14.07,0,0,0,4.08,3.34,57.06,57.06,0,0,0,6.17,3c2.35,1,4.82,2,7.42,3.09,2.84,1.24,5.8,2.6,8.77,4.08a36.81,36.81,0,0,1,8,5.44,27.55,27.55,0,0,1,5.81,7.29,19.83,19.83,0,0,1,2.22,9.63,24.09,24.09,0,0,1-8.52,18.66,30.07,30.07,0,0,1-9.76,5.56,41.09,41.09,0,0,1-12.61,1.85,42.51,42.51,0,0,1-12.23-1.73,31.05,31.05,0,0,1-16.93-13.22,35.85,35.85,0,0,1-4.44-10.38l16.06-4.32a19.62,19.62,0,0,0,2.1,5.68A17.72,17.72,0,0,0,160,197a15.85,15.85,0,0,0,5.19,3.21,18.89,18.89,0,0,0,6.67,1.12c4.07,0,7.16-1,9.39-2.85a8.77,8.77,0,0,0,3.33-7,7.45,7.45,0,0,0-1.85-5.19,19,19,0,0,0-4.82-3.7,49.64,49.64,0,0,0-6.79-3.22c-2.6-1-5.32-2.1-8.16-3.33-2.59-1.24-5.19-2.6-7.91-4A29.73,29.73,0,0,1,147.9,167a26.21,26.21,0,0,1-5.19-6.92,19.69,19.69,0,0,1-2-9.27,18.87,18.87,0,0,1,2.23-8.89,25.53,25.53,0,0,1,6-7.66,30.08,30.08,0,0,1,9.39-5.44,35.26,35.26,0,0,1,12.23-2.1,33.87,33.87,0,0,1,10.75,1.73,33.5,33.5,0,0,1,9.14,4.7,27.46,27.46,0,0,1,6.92,7.29,31.39,31.39,0,0,1,4.08,9.26Z"/>
      <path d="M89.65,212.91a26.65,26.65,0,0,0,8.69-4.45,21.93,21.93,0,0,0,6-7.17,20.29,20.29,0,0,0,2.24-9.63,23,23,0,0,0-4.48-14.3,22.74,22.74,0,0,0-8.71-6.87,20.06,20.06,0,0,0,6.35-6.67A23.51,23.51,0,0,0,103,151.75a23.21,23.21,0,0,0-1.46-8.07,24.29,24.29,0,0,0-4.08-7.19,21.48,21.48,0,0,0-6.5-5.21,18.67,18.67,0,0,0-8.69-2H37.66v85.17H79.14A36.58,36.58,0,0,0,89.65,212.91Zm-35.46-69.2H77.38a8.13,8.13,0,0,1,6.46,2.84,10.79,10.79,0,0,1,2.64,7.63,12.07,12.07,0,0,1-.75,4.26,9.75,9.75,0,0,1-2.11,3.2,11.48,11.48,0,0,1-3.13,2.13,9,9,0,0,1-3.82.77H46.1v13.65H80a8.53,8.53,0,0,1,3.77.87,9.21,9.21,0,0,1,3,2.34A12.37,12.37,0,0,1,88.87,185a11.88,11.88,0,0,1,.79,4.29,10.67,10.67,0,0,1-.82,4.18,10.4,10.4,0,0,1-5.57,5.69,10.09,10.09,0,0,1-4.13.83h-25Z"/>
      <g>
        <path d="M294.21,238.28H115.83V124.83L266.65,26.66l27.56,100.62Zm-166.38-12H282.21V128.89L259.42,45.68,127.83,131.34Z"/>
        <rect x="252.64" y="36.23" width="12" height="193.29"/>
      </g>
    </g>
  </g>
</svg>
