<svg id="Camada_1" data-name="Camada 1" xmlns="http://www.w3.org/2000/svg" width="894.23" height="588.49" viewBox="0 0 894.23 588.49">
  <g>
    <polygon points="728.68 92.53 726.09 279.66 753.69 279.66 756.28 175.75 728.68 92.53" style="fill: #b0afb5"/>
    <text transform="translate(110.4 481.75)" style="font-size: 31.92262077331543px;fill: #fff;font-family: Chalet-NewYorkNineteenSixty, Chalet;letter-spacing: 0.30001134635868226em">ARQUITETU<tspan x="256.11" y="0" style="letter-spacing: 0.29000790899156803em">R</tspan><tspan x="286.66" y="0" style="letter-spacing: 0.2999960505828915em">A + INTERIOR</tspan><tspan x="601.48" y="0" style="letter-spacing: 0.2950249234509158em">E</tspan><tspan x="630.31" y="0">S</tspan></text>
    <path d="M241,272.67h38.26l6.44,17h18.1l-34-85h-19l-34,85h17.86Zm13-34c2.93-7.4,5.83-14.8,6-14.94h.35c.12.14,3.05,7.67,6,14.94l7.06,18.68H246.86Z" style="fill: #fff"/>
    <path d="M330.53,254c0-10.8-.23-21-.23-21.12h.35l40.68,56.81h17.12v-85H371.57v35.93c0,9.37.26,19.92.26,20h-.39l-40.66-56H313.66v85h16.87Z" style="fill: #fff"/>
    <rect x="190.11" y="204.66" width="16.89" height="84.98" style="fill: #fff"/>
    <path d="M440.07,289.65c17.43,0,32.12-9.94,38.35-26.34l-15.85-4.37c-3.8,8.49-11.87,14.81-23.3,14.81-14.22,0-24.83-10.92-24.83-28.28,0-17,10-28.16,24.94-28.16,11.44,0,18.49,6.18,22.17,12.73l15.92-4.63c-5.28-13.36-18.7-24-37.4-24-23.9,0-41.8,17.84-41.8,44C398.27,271.92,416.17,289.65,440.07,289.65Z" style="fill: #fff"/>
    <path d="M496.26,289.65l6.44-17H541l6.44,17h18.08l-34-85H512.43l-34,85Zm19.43-51c2.9-7.4,5.83-14.8,5.94-14.94H522c.12.14,3,7.67,6,14.94L535,257.34H508.53Z" style="fill: #fff"/>
    <g>
      <polygon points="705.78 373.81 741.87 373.81 741.87 409.25 758.41 409.25 758.41 324.25 741.87 324.25 741.87 357.52 705.78 357.52 705.78 324.25 689.47 324.25 689.47 409.25 705.78 409.25 705.78 373.81" style="fill: #5c5b5f"/>
      <path d="M525.74,324.25H507.51L492.8,366.4c-5.71,16.15-8.36,24.27-8.47,24.49H484c-.15-.22-2.91-8.47-8.74-24.85l-14.58-41.79H441.58l31.46,85h21.22Z" style="fill: #5c5b5f"/>
      <path d="M641.88,396.34c-10.39,0-17.74-4.34-19.07-12.72H605.88c3.18,23.48,21.51,27.54,36,27.54,20,0,31.86-8.49,31.86-25.37,0-18.57-14.24-23.44-26.79-25.87-11.83-2.44-20.75-4-20.75-12.48,0-6,4.09-9.62,13.4-9.62,9.74,0,15.33,4,17.48,11.19h16.81C671.12,331,656.61,322.88,640,322.88c-18.62,0-30.92,8.5-30.92,25,0,17.73,14.37,22.7,25.83,25.37,10.48,2.57,21.83,2.44,21.83,12.52C656.7,392.84,651,396.34,641.88,396.34Z" style="fill: #5c5b5f"/>
      <path d="M514,409.25h17.84s25.25-65.81,25.37-65.92h.36c.13.11,3.06,7.64,6,14.93l7.06,18.68H538.17l-5.86,15.31h44.21l6.4,17H601l-34-85H548Z" style="fill: #5c5b5f"/>
    </g>
    <path d="M163.56,288.15a26.5,26.5,0,0,0,8.68-4.45,22,22,0,0,0,6-7.17,20.28,20.28,0,0,0,2.23-9.63A23,23,0,0,0,176,252.6a22.67,22.67,0,0,0-8.71-6.87,20,20,0,0,0,6.35-6.67,23.27,23.27,0,0,0,1.89-20.14,24.09,24.09,0,0,0-4.09-7.19,21.36,21.36,0,0,0-6.5-5.21,18.63,18.63,0,0,0-8.68-2H111.57v85.17H153A36.65,36.65,0,0,0,163.56,288.15ZM128.1,219h23.19a8.11,8.11,0,0,1,6.45,2.84,10.79,10.79,0,0,1,2.65,7.63,12.07,12.07,0,0,1-.76,4.26,9.57,9.57,0,0,1-2.1,3.2A11.48,11.48,0,0,1,154.4,239a9,9,0,0,1-3.82.77h-29.3v13.65h32.61a8.46,8.46,0,0,1,3.77.87,9.15,9.15,0,0,1,3.06,2.34,12.12,12.12,0,0,1,2.05,3.56,11.71,11.71,0,0,1,.8,4.29,10.67,10.67,0,0,1-.82,4.18,10.46,10.46,0,0,1-5.58,5.69,10.06,10.06,0,0,1-4.13.83H128.1Z" style="fill: #fff"/>
    <g>
      <path d="M760.61,289.34H583.36V175.9L733.23,77.68l27.38,100.66Zm-165.25-12H748.61V180L726,96.77,595.36,182.39Z" style="fill: #fff"/>
      <rect x="719.24" y="87.29" width="12" height="193.29" style="fill: #fff"/>
    </g>
    <text transform="translate(108.16 409.77)" style="font-size: 123.55032348632812px;fill: #fff;font-family: Novecento-DemiBold, Novecento DemiBold;font-weight: 300">S<tspan x="70.67" y="0" style="letter-spacing: -0.019997544767848412em">E</tspan><tspan x="142.33" y="0" style="letter-spacing: -0.000007904167892430203em">FID</tspan></text>
  </g>
</svg>
