<svg id="Layer_1" data-name="Layer 1" xmlns="http://www.w3.org/2000/svg" viewBox="0 0 675.71 293.8"><defs><style>.cls-1{fill:#fff;}.cls-1,.cls-16,.cls-17,.cls-18{stroke:#231f20;stroke-miterlimit:10;}.cls-1,.cls-16,.cls-17{stroke-width:3px;}.cls-2{font-size:9.5px;font-family:MyriadPro-Regular, Myriad Pro;}.cls-17,.cls-2{fill:#231f20;}.cls-3{letter-spacing:0em;}.cls-4{letter-spacing:0.02em;}.cls-5{letter-spacing:-0.03em;}.cls-6{letter-spacing:0em;}.cls-7{letter-spacing:0em;}.cls-8{letter-spacing:-0.03em;}.cls-9{letter-spacing:0.02em;}.cls-10{letter-spacing:-0.03em;}.cls-11{letter-spacing:0em;}.cls-12{letter-spacing:-0.02em;}.cls-13{letter-spacing:0.01em;}.cls-14{letter-spacing:0.02em;}.cls-15{letter-spacing:-0.01em;}.cls-16,.cls-18{fill:none;}.cls-18{stroke-width:2px;}</style></defs><rect class="cls-1" x="31.17" y="54.19" width="140.72" height="51.54"/><text class="cls-2" transform="translate(47.32 77.52)">P<tspan class="cls-3" x="5.05" y="0">R</tspan><tspan x="10.19" y="0">OJ</tspan><tspan class="cls-4" x="20.25" y="0">E</tspan><tspan class="cls-5" x="25.08" y="0">T</tspan><tspan x="29.54" y="0">O DE A</tspan><tspan class="cls-3" x="56.93" y="0">R</tspan><tspan x="62.07" y="0">QUIT</tspan><tspan class="cls-4" x="81.75" y="0">E</tspan><tspan x="86.57" y="0">TU</tspan><tspan class="cls-6" x="97.44" y="0">R</tspan><tspan x="102.6" y="0">A</tspan><tspan x="28.17" y="11.4">RESIDENCIAL</tspan></text><rect class="cls-1" x="199.74" y="81.84" width="127.63" height="51.54" rx="18.41"/><text class="cls-2" transform="translate(209.35 105.18)">P<tspan class="cls-3" x="5.05" y="0">R</tspan><tspan x="10.19" y="0">OJ</tspan><tspan class="cls-4" x="20.25" y="0">E</tspan><tspan class="cls-5" x="25.08" y="0">T</tspan><tspan x="29.54" y="0">O DE A</tspan><tspan class="cls-3" x="56.93" y="0">R</tspan><tspan x="62.07" y="0">QUIT</tspan><tspan class="cls-4" x="81.75" y="0">E</tspan><tspan x="86.57" y="0">TU</tspan><tspan class="cls-6" x="97.44" y="0">R</tspan><tspan x="102.6" y="0">A</tspan><tspan x="28.17" y="11.4">RESIDENCIAL</tspan></text><rect class="cls-1" x="367.46" y="125.2" width="127.63" height="51.54"/><text class="cls-2" transform="translate(396.29 148.54)">GERENCI<tspan class="cls-7" x="34.62" y="0">A</tspan><tspan x="40.4" y="0">MEN</tspan><tspan class="cls-8" x="58.96" y="0">T</tspan><tspan x="63.43" y="0">O</tspan><tspan x="10.44" y="11.4">DE P</tspan><tspan class="cls-3" x="28.5" y="11.4">R</tspan><tspan x="33.64" y="11.4">OJ</tspan><tspan class="cls-9" x="43.7" y="11.4">E</tspan><tspan class="cls-10" x="48.53" y="11.4">T</tspan><tspan x="52.99" y="11.4">O</tspan></text><rect class="cls-1" x="526.99" y="125.2" width="127.63" height="51.54"/><text class="cls-2" transform="translate(549.87 154.26)">EXECU<tspan class="cls-11" x="26.43" y="0">Ç</tspan><tspan class="cls-12" x="31.97" y="0">Ã</tspan><tspan x="37.65" y="0">O DE OB</tspan><tspan class="cls-13" x="70.91" y="0">R</tspan><tspan x="76.07" y="0">A</tspan></text><rect class="cls-1" x="199.74" y="165.03" width="127.63" height="51.54" rx="20.25"/><text class="cls-2" transform="translate(225.32 188.36)">DESIGN DE MÓVEIS<tspan x="11.57" y="11.4">PLAN</tspan><tspan class="cls-14" x="33.18" y="11.4">E</tspan><tspan x="38.02" y="11.4">JADOS</tspan></text><rect class="cls-1" x="31.17" y="188.33" width="140.72" height="51.54"/><text class="cls-2" transform="translate(47.32 211.66)">P<tspan class="cls-3" x="5.05" y="0">R</tspan><tspan x="10.19" y="0">OJ</tspan><tspan class="cls-4" x="20.25" y="0">E</tspan><tspan class="cls-5" x="25.08" y="0">T</tspan><tspan x="29.54" y="0">O DE A</tspan><tspan class="cls-3" x="56.93" y="0">R</tspan><tspan x="62.07" y="0">QUIT</tspan><tspan class="cls-4" x="81.75" y="0">E</tspan><tspan x="86.57" y="0">TU</tspan><tspan class="cls-6" x="97.44" y="0">R</tspan><tspan x="102.6" y="0">A</tspan><tspan x="-7.71" y="11.4">FUNCIONAL DE PERFOR</tspan><tspan class="cls-15" x="86.33" y="11.4">M</tspan><tspan x="93.87" y="11.4">ANCE</tspan></text><path class="cls-16" d="M164.47,67.38S194,46.52,227.87,54.29c25.37,5.81,33.95,24.13,33.95,24.13"/><polygon class="cls-17" points="265.14 89.01 256.04 79.11 267.6 75.79 265.14 89.01"/><path class="cls-18" d="M101.52,196.1s.68-35.54,26.15-59.23C156.75,109.82,191,115.39,191,115.39"/><path class="cls-18" d="M327.37,107.61s4.75,18.87,14.89,25.77c6.27,4.27,18.65,2.46,18.65,2.46"/><polygon class="cls-17" points="196.47 115.13 191.2 117.73 191.23 112.47 196.47 115.13"/><polygon class="cls-17" points="366.06 135.99 360.73 138.46 360.89 133.2 366.06 135.99"/><path class="cls-18" d="M495.09,150.94c8.34.95,26.75,0,26.75,0"/><polygon class="cls-17" points="526.99 151.1 521.66 153.56 521.82 148.31 526.99 151.1"/><path class="cls-16" d="M167.36,235.59s29.49,20.86,63.4,13.09c25.37-5.82,33.95-24.14,33.95-24.14"/><polygon class="cls-17" points="268.03 213.96 258.93 223.86 270.49 227.18 268.03 213.96"/><path class="cls-18" d="M104.81,105s.68,35.54,26.15,59.23c29.08,27.05,63.29,21.48,63.29,21.48"/><polygon class="cls-17" points="199.74 186.26 194.79 183.1 194.25 188.33 199.74 186.26"/><path class="cls-18" d="M327,193.26s4.75-18.87,14.88-25.77c6.28-4.27,18.66-2.46,18.66-2.46"/><polygon class="cls-17" points="365.67 164.88 360.34 162.41 360.5 167.67 365.67 164.88"/></svg>